<svg xmlns="http://www.w3.org/2000/svg" viewBox="0 0 200 200" width="200" height="200">
  <!-- Background circle -->
  <circle cx="100" cy="100" r="95" fill="#1a1a1a" stroke="#f9be03" stroke-width="2"/>

  <!-- Bonsai pot (base) -->
  <path d="M 60 150 L 65 165 L 135 165 L 140 150 Z" fill="#8B4513" stroke="#654321" stroke-width="1.5"/>
  <rect x="65" y="165" width="70" height="5" rx="2" fill="#654321"/>

  <!-- Trunk -->
  <path d="M 95 150 Q 92 130, 90 110 Q 88 90, 95 75"
        fill="none" stroke="#8B4513" stroke-width="8" stroke-linecap="round"/>

  <!-- Main branches with digital/pixel effect -->
  <!-- Left branch -->
  <path d="M 90 110 Q 70 105, 55 100"
        fill="none" stroke="#2d5016" stroke-width="5" stroke-linecap="round"/>

  <!-- Right branch -->
  <path d="M 95 90 Q 115 85, 130 82"
        fill="none" stroke="#2d5016" stroke-width="5" stroke-linecap="round"/>

  <!-- Top branch -->
  <path d="M 95 75 Q 100 60, 105 50"
        fill="none" stroke="#2d5016" stroke-width="4" stroke-linecap="round"/>

  <!-- Pixelated leaves (representing digital optimization) -->
  <!-- Left cluster -->
  <rect x="45" y="95" width="8" height="8" fill="#4CAF50" opacity="0.9"/>
  <rect x="53" y="95" width="8" height="8" fill="#66BB6A" opacity="0.9"/>
  <rect x="49" y="87" width="8" height="8" fill="#81C784" opacity="0.9"/>
  <rect x="57" y="87" width="8" height="8" fill="#4CAF50" opacity="0.9"/>
  <rect x="53" y="103" width="8" height="8" fill="#66BB6A" opacity="0.9"/>

  <!-- Right cluster -->
  <rect x="125" y="77" width="8" height="8" fill="#4CAF50" opacity="0.9"/>
  <rect x="133" y="77" width="8" height="8" fill="#66BB6A" opacity="0.9"/>
  <rect x="129" y="69" width="8" height="8" fill="#81C784" opacity="0.9"/>
  <rect x="137" y="69" width="8" height="8" fill="#4CAF50" opacity="0.9"/>
  <rect x="133" y="85" width="8" height="8" fill="#66BB6A" opacity="0.9"/>
  <rect x="141" y="85" width="8" height="8" fill="#81C784" opacity="0.9"/>

  <!-- Top cluster -->
  <rect x="100" y="45" width="8" height="8" fill="#4CAF50" opacity="0.9"/>
  <rect x="108" y="45" width="8" height="8" fill="#66BB6A" opacity="0.9"/>
  <rect x="104" y="37" width="8" height="8" fill="#81C784" opacity="0.9"/>
  <rect x="96" y="45" width="8" height="8" fill="#66BB6A" opacity="0.9"/>
  <rect x="104" y="53" width="8" height="8" fill="#4CAF50" opacity="0.9"/>

  <!-- Digital elements - binary code flowing down -->
  <text x="25" y="30" font-family="monospace" font-size="10" fill="#f9be03" opacity="0.4">01</text>
  <text x="160" y="120" font-family="monospace" font-size="10" fill="#f9be03" opacity="0.4">10</text>
  <text x="170" y="145" font-family="monospace" font-size="10" fill="#f9be03" opacity="0.4">01</text>

  <!-- Compression arrows (subtle) -->
  <path d="M 20 100 L 30 100 M 25 95 L 30 100 L 25 105"
        stroke="#f9be03" stroke-width="1.5" fill="none" opacity="0.3"/>
  <path d="M 180 100 L 170 100 M 175 95 L 170 100 L 175 105"
        stroke="#f9be03" stroke-width="1.5" fill="none" opacity="0.3"/>
</svg>
